<svg width="32" height="32" viewBox="0 0 32 32" fill="none" xmlns="http://www.w3.org/2000/svg">
  <rect width="32" height="32" rx="6" fill="#3b82f6"/>
  <path d="M16 8C14.3431 8 13 9.34315 13 11V21C13 22.6569 14.3431 24 16 24C17.6569 24 19 22.6569 19 21V11C19 9.34315 17.6569 8 16 8Z" fill="white"/>
  <path d="M22 12C22 10.3431 20.6569 9 19 9V11C19.5523 11 20 11.4477 20 12V20C20 20.5523 19.5523 21 19 21V23C20.6569 23 22 21.6569 22 20V12Z" fill="white"/>
  <path d="M13 9C11.3431 9 10 10.3431 10 12V20C10 21.6569 11.3431 23 13 23V21C12.4477 21 12 20.5523 12 20V12C12 11.4477 12.4477 11 13 11V9Z" fill="white"/>
  <path d="M16 26C16 26 14 28 10 28V30C14 30 16 28 16 28C16 28 18 30 22 30V28C18 28 16 26 16 26Z" fill="white"/>
</svg> 